<?xml version="1.0" encoding="iso-8859-1"?>
<!-- Generator: Adobe Illustrator 16.0.0, SVG Export Plug-In . SVG Version: 6.00 Build 0)  -->
<!DOCTYPE svg PUBLIC "-//W3C//DTD SVG 1.1//EN" "http://www.w3.org/Graphics/SVG/1.1/DTD/svg11.dtd">
<svg xmlns="http://www.w3.org/2000/svg" xmlns:xlink="http://www.w3.org/1999/xlink" version="1.1" id="Capa_1" x="0px" y="0px" width="512px" height="512px" viewBox="0 0 45.248 45.248" style="enable-background:new 0 0 45.248 45.248;" xml:space="preserve">
<g>
	<g>
		<path d="M43.343,26.403c-4.468-5.287-5.566-12.414-2.866-18.599c0.231-0.529,0.496-1.061,0.788-1.579    c0.322-0.573,0.234-1.289-0.218-1.767c-0.451-0.478-1.162-0.604-1.751-0.314c-2.497,1.229-5.301,1.878-8.105,1.878    c-2.583,0-5.109-0.531-7.51-1.579c-2.198-0.958-4.164-2.304-5.841-3.999c-0.363-0.368-0.889-0.521-1.395-0.408    c-0.504,0.113-0.915,0.479-1.086,0.966c-0.146,0.414-0.299,0.826-0.479,1.237c-2.22,5.088-6.658,8.757-12.176,10.066    c-0.486,0.115-0.882,0.465-1.058,0.932c-0.175,0.467-0.107,0.992,0.183,1.398c2.828,3.967,3.955,8.925,3.091,13.602    c-0.083,0.451,0.044,0.916,0.347,1.261c0.302,0.345,0.737,0.533,1.205,0.509c1.045-0.053,2.104-0.016,3.161,0.111L7.215,43.197    c-0.143,0.783,0.263,1.561,0.99,1.894c0.228,0.104,0.47,0.157,0.721,0.157c0.533,0,1.029-0.239,1.36-0.656l8.55-10.734    c1.308,0.996,2.468,2.146,3.459,3.436c0.301,0.392,0.773,0.614,1.267,0.584c0.493-0.025,0.941-0.292,1.2-0.712    c3.188-5.186,9.052-8.407,15.304-8.407c0.656,0,1.319,0.036,1.972,0.105c0.607,0.056,1.197-0.247,1.485-0.789    C43.81,27.533,43.739,26.872,43.343,26.403z M23.36,33.917c-1.181-1.266-2.519-2.39-3.995-3.354    c-0.649-0.426-1.513-0.285-1.995,0.319l-6.289,7.896l1.777-9.623c0.149-0.806-0.377-1.583-1.181-1.743    c-1.181-0.236-2.376-0.376-3.564-0.416c0.394-4.247-0.564-8.588-2.721-12.347c5.3-1.807,9.567-5.573,11.955-10.596    c1.55,1.276,3.27,2.329,5.132,3.141c2.781,1.214,5.711,1.829,8.71,1.829c2.002,0,4.003-0.285,5.923-0.835    c-2.006,5.868-1.23,12.276,2.073,17.59C32.925,26.037,27.076,29.067,23.36,33.917z" fill="#e54a5a"/>
		<path d="M17.362,7.662c-0.503-0.221-1.094,0.007-1.318,0.512c-0.018,0.042-1.876,4.163-5.537,5.316    c-0.527,0.166-0.819,0.728-0.653,1.254c0.134,0.427,0.528,0.7,0.953,0.7c0.1,0,0.201-0.015,0.301-0.047    c4.539-1.43,6.679-6.216,6.768-6.419C18.097,8.472,17.867,7.883,17.362,7.662z" fill="#e54a5a"/>
		<path d="M10.008,17.017c-0.529,0.159-0.829,0.716-0.67,1.246c0.425,1.417,0.946,4.072,0.534,5.171    c-0.194,0.517,0.068,1.093,0.585,1.288c0.116,0.043,0.234,0.063,0.351,0.063c0.405,0,0.786-0.248,0.937-0.648    c0.779-2.078-0.359-6.007-0.491-6.449C11.094,17.158,10.54,16.861,10.008,17.017z" fill="#e54a5a"/>
	</g>
</g>
<g>
</g>
<g>
</g>
<g>
</g>
<g>
</g>
<g>
</g>
<g>
</g>
<g>
</g>
<g>
</g>
<g>
</g>
<g>
</g>
<g>
</g>
<g>
</g>
<g>
</g>
<g>
</g>
<g>
</g>
</svg>
