<svg xmlns="http://www.w3.org/2000/svg" xmlns:xlink="http://www.w3.org/1999/xlink" version="1.1" style="" xml:space="preserve" width="514" height="324"><rect id="backgroundrect" width="100%" height="100%" x="0" y="0" fill="none" stroke="none" style="" class=""/>





















<g class="currentLayer" style=""><title>Layer 1</title><g id="svg_1" class="">
	<g id="svg_2">
		<path d="M504.5350689511299,149.5130065419674 c-5.323,-6.344 -12.584,-10.467 -20.908,-12.008 l-3.91,-53.066 c3.857,-0.03700000000000001 7.146,-2.815 7.818,-6.622 l1.508,-8.551 c1.616,-9.166 -0.6380000000000008,-18.214 -6.185,-24.823 c-5.54,-6.602 -13.651,-10.239 -22.84,-10.239 h-58.854 l2.865,-16.245 c0.8130000000000006,-4.614 -0.3650000000000003,-9.221 -3.231,-12.637 c-2.838,-3.382 -7.105,-5.322 -11.707,-5.322 H99.38606895112991 c-8.567,0 -16.453,6.665 -17.954,15.176 L55.80106895112991,160.5430065419674 c-0.7680000000000008,4.36 2.143,8.518 6.503,9.286 c0.4700000000000003,0.0830000000000001 0.9380000000000006,0.12300000000000008 1.401,0.12300000000000008 c3.817,0 7.2,-2.737 7.885,-6.626 L97.22206895112991,17.959006541967398 c0.16900000000000026,-0.9570000000000006 1.401,-1.927 2.1630000000000003,-1.927 l288.702,0.0010000000000000013 l-25.481,144.51 c-0.7690000000000008,4.36 2.142,8.518 6.503,9.286 c4.355,0.7670000000000008 8.518,-2.143 9.286,-6.503 l1.848,-10.479 h95.866 c0.003000000000000006,0 0.007000000000000012,0 0.011000000000000018,0 s0.00800000000000001,0 0.011000000000000018,0 c6.626,0.0010000000000000013 12.351,2.476 16.122,6.969 c2.595,3.093 4.109,6.943 4.473,11.202 h-26.629 c-3.891,0 -7.219,2.793 -7.8950000000000005,6.625 l-3.015,17.102 c-1.215,6.8900000000000015 0.501,13.717 4.707,18.73 c4.148,4.945 10.445,7.78 17.274,7.78 h7.548 l-6.22,35.273 h-21.165 c-1.393,-7.055 -4.442,-13.544 -9.063,-19.049 c-8.199,-9.773 -20.265,-15.154 -33.972,-15.154 c-21.979,0 -43.184,14.38 -53.111,34.204 h-3.223 l10.403,-58.999 c0.7680000000000008,-4.36 -2.142,-8.518 -6.503,-9.286 c-4.358,-0.77 -8.518,2.142 -9.286,6.503 l-10.894,61.783 H197.28006895112992 c-1.393,-7.055 -4.442,-13.543 -9.063,-19.049 c-8.2,-9.773 -20.265,-15.154 -33.973,-15.154 c-21.979,0 -43.184,14.38 -53.111,34.204 l-45.978,-0.0010000000000000013 l3.204,-18.17 h36.029 c4.427,0 8.017,-3.589 8.017,-8.017 c0,-4.427 -3.589,-8.017 -8.017,-8.017 H8.879068951129913 c-4.427,0 -8.017,3.589 -8.017,8.017 c0,4.427 3.589,8.017 8.017,8.017 h33.201 l-2.865,16.245 c-0.8130000000000006,4.614 0.3650000000000003,9.221 3.231,12.637 c2.838,3.382 7.105,5.322 11.707,5.322 h41.774 c-2.173,13.599 1.093,26.41 9.268,36.151 c8.2,9.773 20.265,15.154 33.973,15.154 c27.284,0 53.387,-22.151 58.188,-49.38 c0.11300000000000009,-0.6450000000000008 0.202,-1.286 0.2920000000000003,-1.9260000000000002 h162.331 c-2.174,13.598 1.092,26.409 9.268,36.151 c8.2,9.773 20.265,15.154 33.973,15.154 c27.284,0 53.387,-22.151 58.188,-49.38 c0.11300000000000009,-0.6450000000000008 0.202,-1.286 0.2920000000000003,-1.9260000000000002 h27.525 c3.891,0 7.219,-2.793 7.8950000000000005,-6.625 l15.078,-85.51 C514.2440689511299,168.82000654196742 511.52306895112997,157.8410065419674 504.5350689511299,149.5130065419674 zM383.0720689511299,136.8170065419674 l9.235,-52.375 h71.336 l3.859,52.375 H383.0720689511299 zM473.25306895112993,66.4830065419674 l-0.34000000000000047,1.9260000000000002 h-77.78 l3.204,-18.171 h61.681 c4.367,0 8.117,1.602 10.557,4.511 C473.1050689511299,57.7630065419674 474.0570689511299,61.9290065419674 473.25306895112993,66.4830065419674 zM181.56706895112993,271.7070065419674 c-3.512,19.923000000000002 -22.533,36.13 -42.399,36.13 c-8.886,0 -16.59,-3.348 -21.691,-9.426 c-5.248,-6.255 -7.248,-14.749 -5.631,-23.919 c3.513,-19.923000000000002 22.533,-36.13 42.399,-36.13 c8.886,0 16.59,3.348 21.691,9.427 C181.18406895112992,254.0420065419674 183.18406895112992,262.5370065419674 181.56706895112993,271.7070065419674 zM445.6180689511299,271.7070065419674 c-3.513,19.923000000000002 -22.533,36.13 -42.399,36.13 c-8.886,0 -16.59,-3.348 -21.691,-9.427 c-5.248,-6.255 -7.248,-14.749 -5.631,-23.919 c3.512,-19.923000000000002 22.533,-36.13 42.399,-36.13 c8.885,0 16.59,3.348 21.691,9.427 C445.2350689511299,254.0420065419674 447.2350689511299,262.5370065419674 445.6180689511299,271.7070065419674 zM491.5430689511299,205.22600654196737 h-10.375 v-0.0010000000000000013 c-2.1390000000000002,0 -3.865,-0.7100000000000006 -4.992,-2.052 c-1.169,-1.3940000000000001 -1.596,-3.3970000000000002 -1.2,-5.6400000000000015 l1.848,-10.477 h17.923000000000002 L491.5430689511299,205.22600654196737 z" fill="#f19f4d" id="svg_3"/>
	</g>
</g><g id="svg_4" class="">
	<g id="svg_5">
		<path d="M159.49103447556496,262.28404101753233 c-2.838,-3.382 -7.105,-5.322 -11.708,-5.322 c-8.567,0 -16.453,6.665 -17.954,15.176 c-0.8130000000000004,4.614 0.3650000000000002,9.221 3.231,12.637 c2.838,3.382 7.105,5.322 11.707,5.322 c8.567,0 16.453,-6.666 17.954,-15.175 C163.53503447556497,270.30704101753236 162.35803447556495,265.70104101753236 159.49103447556496,262.28404101753233 z" fill="#f19f4d" id="svg_6"/>
	</g>
</g><g id="svg_7" class="">
	<g id="svg_8">
		<path d="M423.111,263.5771444740295 c-2.839,-3.382 -7.106,-5.322 -11.707,-5.322 c-8.567,0 -16.453,6.665 -17.953,15.175 c-0.8130000000000003,4.615 0.36300000000000016,9.221 3.23,12.638 c2.838,3.382 7.105,5.322 11.707,5.322 c8.567,0 16.453,-6.666 17.954,-15.175 C427.156,271.60014447402955 425.978,266.99414447402955 423.111,263.5771444740295 z" fill="#f19f4d" id="svg_9"/>
	</g>
</g><g id="svg_10" class="">
	<g id="svg_11">
		<path d="M323.805034475565,222.75804101753232 H222.22203447556495 c-4.427,0 -8.017,3.589 -8.017,8.017 c0,4.427 3.589,8.017 8.017,8.017 h101.583 c4.427,0 8.017,-3.589 8.017,-8.017 C331.82103447556494,226.34704101753238 328.23203447556494,222.75804101753232 323.805034475565,222.75804101753232 z" fill="#f19f4d" id="svg_12"/>
	</g>
</g><g id="svg_13" class="">
	<g id="svg_14">
		<path d="M179.89806895112991,188.55404101753237 H32.01206895112991 c-4.427,0 -8.017,3.589 -8.017,8.017 c0,4.427 3.588,8.017 8.017,8.017 h147.886 c4.427,0 8.017,-3.589 8.017,-8.017 C187.9150689511299,192.14304101753237 184.3260689511299,188.55404101753237 179.89806895112991,188.55404101753237 z" fill="#f19f4d" id="svg_15"/>
	</g>
</g><g id="svg_16" class="">
	<g id="svg_17">
		<path d="M332.9890689511299,155.8700065419674 l-29.68,-25.653 c-3.35,-2.894 -8.412,-2.527 -11.308,0.8230000000000006 c-2.896,3.35 -2.527,8.412 0.8230000000000006,11.308 l13.388,11.572 H102.93906895112991 c-4.427,0 -8.017,3.589 -8.017,8.017 c0,4.427 3.589,8.017 8.017,8.017 h198.189 l-16.535,10.954 c-3.692,2.444 -4.7010000000000005,7.4190000000000005 -2.2560000000000002,11.11 c1.542,2.329 4.092,3.59 6.69,3.59 c1.52,0 3.058,-0.43200000000000033 4.42,-1.335 l38.727,-25.653 c2.092,-1.3840000000000001 3.4130000000000003,-3.668 3.573,-6.172 C335.90706895112993,159.94300654196738 334.8870689511299,157.50900654196738 332.9890689511299,155.8700065419674 z" fill="#f19f4d" id="svg_18"/>
	</g>
</g><g id="svg_19" class="">
</g><g id="svg_20" class="">
</g><g id="svg_21" class="">
</g><g id="svg_22" class="">
</g><g id="svg_23" class="">
</g><g id="svg_24" class="">
</g><g id="svg_25" class="">
</g><g id="svg_26" class="">
</g><g id="svg_27" class="">
</g><g id="svg_28" class="">
</g><g id="svg_29" class="">
</g><g id="svg_30" class="">
</g><g id="svg_31" class="">
</g><g id="svg_32" class="">
</g><g id="svg_33" class="">
</g></g></svg>