<?xml version="1.0" encoding="iso-8859-1"?>
<svg xmlns="http://www.w3.org/2000/svg" xmlns:xlink="http://www.w3.org/1999/xlink" version="1.1" viewBox="0 0 30.017 30.017" enable-background="new 0 0 30.017 30.017" width="512px" height="512px">
  <g>
    <g>
      <path d="m8.009,17.017c-0.552,0-1,0.447-1,1s0.448,1 1,1 1-0.447 1-1-0.448-1-1-1zm3,4c-0.552,0-1,0.447-1,1s0.448,1 1,1 1-0.447 1-1-0.448-1-1-1zm-6-8c-0.552,0-1,0.447-1,1s0.448,1 1,1 1-0.447 1-1-0.448-1-1-1zm7-7c-0.552,0-1,0.447-1,1s0.448,1 1,1 1-0.447 1-1-0.448-1-1-1zm6,0c-0.552,0-1,0.447-1,1s0.448,1 1,1 1-0.447 1-1-0.448-1-1-1zm4,11c-0.552,0-1,0.447-1,1s0.448,1 1,1 1-0.447 1-1-0.448-1-1-1z" fill="#e54a5a"/>
    </g>
  </g>
  <g>
    <g>
      <path d="m29.99,6.925c-0.019-0.439-0.273-0.834-0.691-0.954l-14.071-5.938c-0.308-0.088-0.61,0.007-0.843,0.202l-13.666,5.746c-0.414,0.118-0.666,0.505-0.69,0.935-0.004,0.035-0.02,0.065-0.02,0.101v16c-1.73472e-18,0.012 0.006,0.021 0.007,0.033-0.004,0.462 0.266,0.889 0.703,1.014l14.071,5.938c0.07,0.02 0.139,0.01 0.208,0.014 0.004,0 0.007,0.002 0.011,0.002 0.002,0 0.004-0.001 0.006-0.001 0.23,0.007 0.442-0.069 0.618-0.217l13.666-5.746c0.436-0.124 0.706-0.546 0.704-1.005 0-0.011 0.006-0.021 0.006-0.031v-16c0-0.034-0.016-0.061-0.019-0.093zm-15.981,20.527l-12-5.064v-13.78l12,5.063v13.781zm.976-15.589l-11.481-4.844 11.529-4.848 11.481,4.844-11.529,4.848zm13.024,10.523l-12,5.046v-13.791l12-5.046v13.791z" fill="#e54a5a"/>
    </g>
  </g>
</svg>
