<svg xmlns="http://www.w3.org/2000/svg" xmlns:xlink="http://www.w3.org/1999/xlink" version="1.1" width="512.9899498009752" height="513" enable-background="new 0 0 128 128" xml:space="preserve" style=""><rect id="backgroundrect" width="100%" height="100%" x="0" y="0" fill="none" stroke="none" style="" class=""/>

<g class="currentLayer" style=""><title>Layer 1</title><g id="svg_1" class="">
	<g id="svg_2">
		<path d="M115.92963654081905,399.2580075899043 c-1.2632110154462737,-1.3033717170871846 -1.9737672116348022,-3.1006799380705035 -1.9508460440158184,-4.929020818984471 c0.05348272444429801,-3.475657912232492 0.9957973932247854,-34.41780591808201 17.071176283339454,-50.75132926157934 c7.4162711229426375,-7.535764253158839 22.95172917581011,-15.697353814919063 45.79903969913373,-27.311326793963794 c24.383028753795603,-12.374273147345589 37.903970852594526,-19.75487410085119 44.135981648556275,-25.739005357477662 l13.739966589380332,-13.194052580513521 l-11.939381533088973,-14.895676766710675 c-18.802997836773862,-23.460690907569315 -29.59122739610937,-49.367789839671325 -29.59122739610937,-71.06996335117061 c0,-16.739533977589964 0,-35.71083341519231 7.80083737966116,-51.40301512012293 C210.331738777809,121.19761644632234 229.02522436929218,111.68093406759056 256.57137425450753,111.68093406759056 c27.541056292411287,0 46.24472906950289,9.516682378731822 55.57109749402758,28.28109741679652 c7.80083737966116,15.697353814919063 7.80083737966116,34.668653252521416 7.80083737966116,51.40818723011138 c0,21.699587456505085 -10.783135966531292,47.60410033361287 -29.596320988913593,71.06996335117061 l-11.939381533088973,14.900848876699119 l13.74760697858666,13.19922469050196 c3.1147319997798224,2.9843074633305764 8.058063816274212,6.328076570857817 15.275684819852312,10.470936671599224 V277.1884536977092 h0.8251620342834536 c-0.8098812558707966,-0.599964758659181 -1.5968413441226086,-1.1921713523356983 -2.108747420946602,-1.686107856231836 c21.619754657506885,-26.982897809697775 34.160180141493676,-57.45438380659915 34.160180141493676,-84.1321271269789 c0,-18.102384959544224 0,-40.634682124188345 -9.978348303464715,-60.72574337428821 C321.3364067601502,112.55502065563712 301.2447299439089,90.99249411382573 256.57137425450753,90.99249411382573 C211.89801856510627,90.99249411382573 191.8037949524629,112.55502065563712 182.81360365301668,130.641889285216 c-9.98853548907315,20.093647305094088 -9.98853548907315,42.61818630475555 -9.98853548907315,60.72574337428821 c0,26.682915430368187 12.540425483986795,57.15181537227534 34.16272693789578,84.1321271269789 c-5.1623563070757985,4.960053478915118 -26.453574228710565,15.769763354757238 -39.24613255650619,22.258175335256734 c-25.373732554216172,12.888898091195486 -41.47203261194982,21.409949297152377 -51.096376215521325,31.1904092852947 c-21.31413908925375,21.64786635662067 -22.92626121178902,57.98452508041437 -23.0306798642755,65.0547994346135 c-0.11460583809492406,7.375428843517161 2.691963797029659,14.505182462583363 7.80083737966116,19.778148595799173 c5.103779989827282,5.252277693262046 12.076908538802877,8.223654881621519 19.350559063227387,8.223654881621519 h186.66744229261008 v-20.688439953764828 H120.76600290842484 C118.96032425932918,401.31909342029815 117.19284755626535,400.5717235269684 115.92963654081905,399.2580075899043 zM388.92838327213434,318.56533360523883 h-10.187185608437687 v-10.344219976882414 c0,-17.111925896757732 -13.709405032555019,-31.03265993064724 -30.561556825313062,-31.03265993064724 s-30.559010028910954,13.92073403388951 -30.559010028910954,31.03265993064724 v10.344219976882414 h-10.187185608437687 c-16.852151792758043,0 -30.561556825313062,13.92073403388951 -30.561556825313062,31.03265993064724 s13.709405032555019,31.03265993064724 30.561556825313062,31.03265993064724 h10.187185608437687 v10.344219976882414 c0,17.111925896757732 13.706858236152911,31.03265993064724 30.559010028910954,31.03265993064724 s30.561556825313062,-13.92073403388951 30.561556825313062,-31.03265993064724 v-10.344219976882414 h10.187185608437687 c16.852151792758043,0 30.561556825313062,-13.92073403388951 30.561556825313062,-31.03265993064724 S405.78053506489243,318.56533360523883 388.92838327213434,318.56533360523883 zM388.92838327213434,359.9422135127685 h-30.561556825313062 v31.03265993064724 c0,5.717767592221755 -4.5562187633737565,10.344219976882414 -10.187185608437687,10.344219976882414 s-10.187185608437687,-4.626452384660659 -10.187185608437687,-10.344219976882414 v-31.03265993064724 H307.4334452010349 c-5.630966845063931,0 -10.187185608437687,-4.626452384660659 -10.187185608437687,-10.344219976882414 s4.5562187633737565,-10.344219976882414 10.187185608437687,-10.344219976882414 h30.559010028910954 V308.2211136283564 c0,-5.717767592221755 4.5562187633737565,-10.344219976882414 10.187185608437687,-10.344219976882414 s10.187185608437687,4.626452384660659 10.187185608437687,10.344219976882414 v31.03265993064724 h30.561556825313062 c5.630966845063931,0 10.187185608437687,4.626452384660659 10.187185608437687,10.344219976882414 S394.5568033207961,359.9422135127685 388.92838327213434,359.9422135127685 z" fill="#f19f4d" id="svg_3"/>
	</g>
</g></g></svg>